# xmcd
#
# Track frame offsets:
#        150
#        21232
#        43797
#
# Disc length: 920 seconds
#
# Revision: 0
# Processed by: cddbd v1.5.1PL0 Copyright (c) Steve Scherf et al.
# Submitted via: ExactAudioCopy v0.95a5
#
DISCID=1f039603
DTITLE=TUSK - 3 SONGS
DYEAR=1996
DGENRE=Rock
TTITLE0=GO IN MORE AND MORE
TTITLE1=CAST
TTITLE2=WARNING FROM STARDUST
EXTD=
EXTT0=
EXTT1=
EXTT2=
PLAYORDER=
